HIERARCHY
ROOT Hips
{
	OFFSET -0.179506 -22.333345 2.821913
	CHANNELS 6 Xposition Yposition Zposition Zrotation Yrotation Xrotation 
	JOINT LeftUpLeg
	{
		OFFSET 6.951974 -9.140623 -0.681533
		CHANNELS 3 Zrotation Yrotation Xrotation
		JOINT LeftLeg
		{
			OFFSET 3.427654 -37.519855 -0.449580
			CHANNELS 3 Zrotation Yrotation Xrotation
			JOINT LeftFoot
			{
				OFFSET -1.359570 -39.796059 -4.369333
				CHANNELS 3 Zrotation Yrotation Xrotation
				JOINT LeftToe
				{
					OFFSET 2.635814 -5.579078 11.928840
					CHANNELS 3 Zrotation Yrotation Xrotation
					End Site
					{
						OFFSET 0.000000 0.000000 0.000000
					}
				}
			}
		}
	}
	JOINT RightUpLeg
	{
		OFFSET -6.767048 -9.052170 -0.431982
		CHANNELS 3 Zrotation Yrotation Xrotation
		JOINT RightLeg
		{
			OFFSET -3.829005 -38.256897 -0.885003
			CHANNELS 3 Zrotation Yrotation Xrotation
			JOINT RightFoot
			{
				OFFSET 1.577377 -39.841461 -4.231180
				CHANNELS 3 Zrotation Yrotation Xrotation
				JOINT RightToe
				{
					OFFSET -2.537174 -4.814398 12.334795
					CHANNELS 3 Zrotation Yrotation Xrotation
					End Site
					{
						OFFSET 0.000000 0.000000 0.000000
					}
				}
			}
		}
	}
	JOINT Spine
	{
		OFFSET -0.253288 10.896323 -2.669631
		CHANNELS 3 Zrotation Yrotation Xrotation
		JOINT Spine1
		{
			OFFSET 0.548704 13.518043 0.109247
			CHANNELS 3 Zrotation Yrotation Xrotation
			JOINT Spine2
			{
				OFFSET 0.145701 5.292222 2.542457
				CHANNELS 3 Zrotation Yrotation Xrotation
				JOINT Neck
				{
					OFFSET -0.277840 21.387037 -4.285703
					CHANNELS 3 Zrotation Yrotation Xrotation
					JOINT Head
					{
						OFFSET 0.515184 6.496960 5.134897
						CHANNELS 3 Zrotation Yrotation Xrotation
						End Site
						{
							OFFSET 0.000000 0.000000 0.000000
						}
					}
				}
				JOINT LeftShoulder
				{
					OFFSET 7.884473 12.174932 -3.408961
					CHANNELS 3 Zrotation Yrotation Xrotation
					JOINT LeftArm
					{
						OFFSET 9.097692 3.046888 -0.886815
						CHANNELS 3 Zrotation Yrotation Xrotation
						JOINT LeftForeArm
						{
							OFFSET 25.961220 -1.277207 -2.745643
							CHANNELS 3 Zrotation Yrotation Xrotation
							JOINT LeftHand
							{
								OFFSET 24.923361 0.898606 -0.117091
								CHANNELS 3 Zrotation Yrotation Xrotation
								End Site
								{
									OFFSET 0.000000 0.000000 0.000000
								}
							}
						}
					}
				}
				JOINT RightShoulder
				{
					OFFSET -8.175920 11.883285 -3.861528
					CHANNELS 3 Zrotation Yrotation Xrotation
					JOINT RightArm
					{
						OFFSET -9.601238 3.255117 -0.914307
						CHANNELS 3 Zrotation Yrotation Xrotation
						JOINT RightForeArm
						{
							OFFSET -25.374195 -1.332924 -2.140099
							CHANNELS 3 Zrotation Yrotation Xrotation
							JOINT RightHand
							{
								OFFSET -25.529810 0.777228 -0.555919
								CHANNELS 3 Zrotation Yrotation Xrotation
								End Site
								{
									OFFSET 0.000000 0.000000 0.000000
								}
							}
						}
					}
				}
			}
		}
	}
}
MOTION
Frames: 10
Frame Time: 0.033333
-0.179506 103.422668 2.821913 175.485787 -71.816486 176.950353 11.359424 -0.133853 5.057582 4.214087 -8.724982 5.601201 -5.687360 10.210417 -7.561449 0.280873 1.326860 1.472606 2.767266 -2.702178 7.805619 -1.322763 0.646802 3.494349 -1.254536 -8.500246 -17.356966 2.277879 -1.849826 -1.084882 1.124444 2.015291 4.042577 -0.859716 0.591492 1.432935 -1.300945 1.684763 -1.516260 -5.826976 5.467882 4.508111 -0.921157 8.080562 -2.987140 -17.824812 9.482876 -0.462051 -39.887073 -1.825369 -6.722696 20.292612 -27.033901 -25.909352 3.737256 -12.291098 -16.276741 10.343603 1.757742 -1.730354 53.846499 1.908156 13.766999 -3.181189 35.444168 12.290457 11.637655 5.260026 -1.681648 
-0.286894 103.402939 2.972437 175.733997 -71.624339 176.727700 11.261133 -0.100203 5.247247 4.284348 -8.792435 5.426431 -5.471406 10.439779 -7.817040 0.281497 1.294160 1.451546 2.763046 -2.687307 8.046977 -1.445893 0.733261 3.061499 -1.218129 -8.428504 -17.253273 2.254558 -1.823259 -1.071509 1.220158 2.070460 3.963718 -0.876017 0.609290 1.328860 -1.324848 1.749774 -1.489110 -5.812084 5.468406 4.371612 -1.061597 7.968457 -2.789577 -17.772422 9.570595 -0.599760 -39.919960 -1.785161 -6.750220 20.292919 -26.967935 -26.108135 3.744970 -12.388381 -16.518451 10.293877 1.729065 -1.879805 53.761643 2.061974 13.742678 -3.236043 35.067763 11.988996 11.810619 5.277691 -1.929407 
-0.326530 103.393829 3.074078 176.100683 -71.481402 176.408376 11.215072 -0.148965 5.273802 4.365864 -9.073800 5.434452 -5.351317 10.810810 -8.040526 0.337805 1.230557 1.402819 2.867502 -2.584688 8.056324 -1.526993 0.919202 2.971596 -1.245057 -8.567044 -17.179462 2.253096 -1.785804 -1.083038 1.278485 2.078441 3.930853 -0.870464 0.660825 1.184374 -1.301184 1.790230 -1.431800 -5.876649 5.505826 4.242323 -1.195043 8.052148 -2.591848 -17.667844 9.665469 -0.703466 -40.020173 -1.825867 -6.782119 20.434237 -27.072965 -26.277493 3.880928 -12.353686 -16.847218 10.227660 1.683771 -2.040529 53.796826 2.220899 13.766360 -3.446238 34.950004 11.618275 11.878441 5.237369 -2.260779 
-0.400159 103.373772 3.099363 176.409300 -71.427737 176.117378 11.302633 -0.119768 5.320692 4.326877 -9.273195 5.479717 -5.384426 10.936692 -8.308183 0.373024 1.206444 1.365171 2.917970 -2.539177 8.043030 -1.479913 1.070758 3.074826 -1.259807 -8.644945 -17.253341 2.245646 -1.780900 -1.085449 1.295359 2.072666 3.975903 -0.881271 0.722758 1.150510 -1.249667 1.822537 -1.347929 -5.922930 5.631052 4.178293 -1.345600 8.080479 -2.737142 -17.542079 9.656157 -0.765207 -39.972936 -1.835580 -6.740435 20.380168 -27.218992 -26.214544 4.185978 -12.267205 -17.051330 10.195070 1.686004 -2.170933 53.748433 2.378897 13.754130 -3.590867 34.904976 11.206287 11.681551 5.212810 -2.600213 
-0.480177 103.345901 3.079377 176.565713 -71.325150 176.061138 11.371019 -0.085516 5.332315 4.286153 -9.351470 5.467932 -5.391320 11.017609 -8.499656 0.398339 1.174829 1.325253 2.949042 -2.495432 7.924582 -1.441586 1.185775 3.196200 -1.348114 -8.679661 -17.350526 2.232398 -1.747630 -1.093200 1.297007 2.053233 4.120730 -0.941819 0.790928 1.054685 -1.195127 1.848367 -1.220305 -5.981125 5.692246 4.031780 -1.451843 8.009196 -2.951149 -17.460898 9.570516 -0.791592 -39.922733 -1.835039 -6.714844 20.474634 -27.345625 -26.275698 4.488057 -12.177132 -17.228828 10.183313 1.837110 -2.242258 53.662654 2.543484 13.733401 -3.727538 34.874199 10.906038 11.370403 5.192813 -2.747498 
-0.440491 103.315170 3.116443 176.743535 -71.240259 176.000099 11.468198 -0.070657 5.246795 4.201844 -9.353690 5.418124 -5.432457 11.041187 -8.682046 0.428431 1.179486 1.311014 2.937754 -2.435923 7.729544 -1.333205 1.245235 3.250639 -1.383700 -8.650811 -17.411356 2.237330 -1.742522 -1.070018 1.230451 2.045469 4.246593 -1.009933 0.869787 1.037123 -1.121403 1.885237 -1.127586 -6.070394 5.866997 3.900110 -1.595880 8.024845 -3.028776 -17.363970 9.431622 -0.854882 -39.864304 -1.919990 -6.650333 20.417887 -27.461483 -26.291678 4.868019 -12.119880 -17.251122 10.158680 2.004669 -2.297204 53.643444 2.764404 13.778983 -3.720417 34.762634 10.731906 11.007733 5.213527 -2.667823 
-0.423804 103.285187 3.064568 176.708712 -71.086619 176.301953 11.554684 -0.078164 5.033490 4.079032 -9.377502 5.389974 -5.461799 11.080588 -8.705307 0.449460 1.181029 1.286134 2.884406 -2.360034 7.351776 -1.188007 1.276342 3.364354 -1.405754 -8.560797 -17.525964 2.245944 -1.747203 -1.049734 1.133830 2.021737 4.460496 -1.128954 0.967639 0.949112 -1.097239 1.897436 -1.059533 -6.127355 5.953821 3.646965 -1.696368 7.998346 -3.013966 -17.324580 9.302142 -0.910556 -39.783944 -2.048939 -6.633980 20.429936 -27.300900 -26.449415 5.273769 -12.097095 -17.244546 10.190438 2.173647 -2.318946 53.631533 2.962169 13.815941 -3.835471 34.843414 10.511318 10.575960 5.313266 -2.626864 
-0.453330 103.257469 2.956743 176.643469 -70.870181 176.844473 11.664604 -0.108573 4.602714 3.916326 -9.339598 5.471748 -5.527063 11.104930 -8.668907 0.451530 1.210739 1.278418 2.813747 -2.215329 6.669002 -0.978788 1.353751 3.679708 -1.468426 -8.436254 -17.653983 2.297281 -1.797924 -1.022344 1.002220 1.952721 4.814500 -1.345462 1.104732 0.823933 -1.103530 1.886625 -0.985227 -6.238338 5.986180 3.177567 -1.827435 8.000692 -3.186898 -17.360631 9.205043 -1.022250 -39.867980 -2.246130 -6.571019 20.516345 -26.992341 -26.722171 6.046406 -12.096296 -17.240372 10.115757 2.345815 -2.362686 53.831250 3.111166 13.915692 -4.055313 35.205647 10.183640 9.874072 5.502072 -2.617254 
-0.354064 103.232613 2.562612 176.487380 -70.465122 177.601583 11.922247 -0.158576 3.821339 3.751747 -9.265516 6.030736 -5.716964 11.078701 -8.253163 0.459466 1.218492 1.191035 2.834189 -1.877628 5.590755 -0.556788 1.467793 4.394964 -1.645045 -8.318058 -17.833985 2.325228 -1.814256 -0.964488 0.812200 1.832909 5.446881 -1.668740 1.323986 0.749923 -1.040419 1.928148 -0.820785 -6.477416 5.912514 2.564361 -1.917065 7.971193 -3.809325 -17.511454 8.950144 -1.227849 -40.109909 -2.581477 -6.353877 20.768329 -26.639095 -27.356818 7.197507 -11.946947 -17.550216 10.071580 2.661520 -2.402216 54.014243 3.376225 14.020226 -4.553279 36.037258 9.553601 8.929767 5.819279 -2.716306 
-0.263325 103.206451 2.165808 176.003136 -69.995919 178.924689 12.139663 -0.086860 2.986941 3.550376 -8.845430 6.240411 -5.950248 10.794980 -7.699690 0.471150 1.226621 1.114314 2.728364 -1.533582 4.078913 -0.161260 1.408365 5.357592 -1.853704 -8.079039 -18.038940 2.414733 -1.862853 -0.923069 0.560615 1.615127 6.265139 -2.099654 1.541937 0.526068 -1.053774 1.914664 -0.672550 -6.698415 5.825404 1.730619 -1.959592 8.036413 -4.723164 -17.771423 8.816667 -1.454072 -40.720486 -2.747489 -5.998622 21.293517 -26.602750 -27.719837 8.390687 -11.675199 -18.007874 9.859051 2.904465 -2.467044 54.619519 3.527880 14.272507 -5.077296 37.326323 9.070112 7.617227 6.124923 -3.119515 
